<svg width="110" height="35" viewBox="0 0 110 35" fill="none" xmlns="http://www.w3.org/2000/svg">
<path d="M57.9739 8.59838C57.9739 9.83161 56.9773 10.825 55.7402 10.825C54.5032 10.825 53.5066 9.83161 53.5066 8.59838C53.5066 7.36514 54.4688 6.3717 55.7402 6.3717C57.0117 6.40596 57.9739 7.3994 57.9739 8.59838ZM48.7645 13.086V13.6341C48.7645 13.6341 47.6992 12.2638 45.4312 12.2638C41.6856 12.2638 38.7647 15.1071 38.7647 19.0466C38.7647 22.9518 41.6513 25.8294 45.4312 25.8294C47.7336 25.8294 48.7645 24.4249 48.7645 24.4249V25.0072C48.7645 25.2813 48.9707 25.4868 49.2456 25.4868H52.029V12.6064H49.2456C48.9707 12.6064 48.7645 12.8462 48.7645 13.086ZM48.7645 21.3418C48.249 22.0954 47.2181 22.7463 45.981 22.7463C43.7818 22.7463 42.098 21.376 42.098 19.0466C42.098 16.7172 43.7818 15.3469 45.981 15.3469C47.1838 15.3469 48.2834 16.032 48.7645 16.7514V21.3418ZM54.0908 12.6064H57.3897V25.4868H54.0908V12.6064ZM103.368 12.2638C101.1 12.2638 100.035 13.6341 100.035 13.6341V6.40596H96.7357V25.4868H99.5192C99.7941 25.4868 100 25.247 100 25.0072V24.4249C100 24.4249 101.066 25.8294 103.334 25.8294C107.079 25.8294 110 22.9518 110 19.0466C110 15.1414 107.079 12.2638 103.368 12.2638ZM102.818 22.712C101.547 22.712 100.55 22.0612 100.035 21.3075V16.7172C100.55 16.032 101.65 15.3126 102.818 15.3126C105.017 15.3126 106.701 16.6829 106.701 19.0123C106.701 21.3418 105.017 22.712 102.818 22.712ZM95.0176 17.8476V25.5211H91.7187V18.2244C91.7187 16.1005 91.0314 15.2441 89.1758 15.2441C88.1793 15.2441 87.1484 15.758 86.4955 16.5116V25.4868H83.1966V12.6064H85.8082C86.0831 12.6064 86.2893 12.8462 86.2893 13.086V13.6341C87.2514 12.6406 88.5229 12.2638 89.7943 12.2638C91.2376 12.2638 92.4403 12.6749 93.4025 13.4971C94.5708 14.4562 95.0176 15.6895 95.0176 17.8476ZM75.1899 12.2638C72.9219 12.2638 71.8567 13.6341 71.8567 13.6341V6.40596H68.5578V25.4868H71.3412C71.6161 25.4868 71.8223 25.247 71.8223 25.0072V24.4249C71.8223 24.4249 72.8876 25.8294 75.1555 25.8294C78.9011 25.8294 81.822 22.9518 81.822 19.0466C81.8564 15.1414 78.9355 12.2638 75.1899 12.2638ZM74.6401 22.712C73.3686 22.712 72.3721 22.0612 71.8567 21.3075V16.7172C72.3721 16.032 73.4717 15.3126 74.6401 15.3126C76.8393 15.3126 78.5232 16.6829 78.5232 19.0123C78.5232 21.3418 76.8393 22.712 74.6401 22.712ZM65.7056 12.2638C66.7022 12.2638 67.2176 12.4351 67.2176 12.4351V15.4839C67.2176 15.4839 64.4685 14.559 62.7504 16.5116V25.5211H59.4515V12.6064H62.2349C62.5098 12.6064 62.716 12.8462 62.716 13.086V13.6341C63.3345 12.9147 64.6747 12.2638 65.7056 12.2638ZM31.4453 24.3221C31.2735 23.911 31.1017 23.4657 30.9299 23.0889C30.655 22.4722 30.3801 21.8899 30.1395 21.3418L30.1052 21.3075C27.7341 16.1691 25.1912 10.9621 22.5109 5.8236L22.4078 5.61806C22.1329 5.10421 21.858 4.55611 21.5831 4.00801C21.2394 3.39139 20.8958 2.74052 20.346 2.1239C19.2463 0.753642 17.6656 0 15.9818 0C14.2637 0 12.7173 0.753642 11.5833 2.05539C11.0679 2.67201 10.6899 3.32288 10.3462 3.93949C10.0713 4.4876 9.79642 5.0357 9.52151 5.54955L9.41843 5.75509C6.77245 10.8936 4.19519 16.1005 1.82412 21.239L1.78976 21.3075C1.54922 21.8556 1.27431 22.438 0.999401 23.0546C0.827584 23.4314 0.655768 23.8425 0.483951 24.2878C0.037227 25.5553 -0.100226 26.7543 0.0715903 27.9875C0.449587 30.5568 2.16776 32.7149 4.53883 33.6741C5.43228 34.0509 6.36009 34.2222 7.32226 34.2222C7.59717 34.2222 7.9408 34.188 8.21571 34.1537C9.3497 34.0167 10.5181 33.6399 11.652 32.989C13.0609 32.2011 14.4011 31.0706 15.9131 29.4263C17.4251 31.0706 18.7996 32.2011 20.1742 32.989C21.3082 33.6399 22.4765 34.0167 23.6105 34.1537C23.8854 34.188 24.229 34.2222 24.5039 34.2222C25.4661 34.2222 26.4283 34.0509 27.2874 33.6741C29.6928 32.7149 31.3766 30.5225 31.7546 27.9875C32.0295 26.7886 31.8921 25.5896 31.4453 24.3221ZM15.9475 26.1034C14.0918 23.774 12.8891 21.5816 12.4768 19.7317C12.3049 18.9438 12.2706 18.2587 12.3737 17.6421C12.4424 17.094 12.6486 16.6144 12.9235 16.2033C13.5764 15.2784 14.676 14.696 15.9475 14.696C17.2189 14.696 18.3529 15.2441 18.9714 16.2033C19.2463 16.6144 19.4525 17.094 19.5213 17.6421C19.6243 18.2587 19.59 18.9781 19.4182 19.7317C19.0058 21.5473 17.8031 23.7397 15.9475 26.1034ZM29.6584 27.7135C29.4179 29.4948 28.2152 31.0364 26.5314 31.7215C25.7067 32.0641 24.8132 32.1668 23.9198 32.0641C23.0607 31.9613 22.2016 31.6872 21.3082 31.1734C20.0711 30.4883 18.834 29.4263 17.3907 27.8505C19.6587 25.0757 21.0332 22.5408 21.5487 20.2798C21.7892 19.2179 21.8236 18.2587 21.7205 17.368C21.5831 16.5116 21.2738 15.7237 20.7927 15.0386C19.7274 13.4971 17.9405 12.6064 15.9475 12.6064C13.9544 12.6064 12.1675 13.5313 11.1022 15.0386C10.6211 15.7237 10.3119 16.5116 10.1744 17.368C10.037 18.2587 10.0713 19.2521 10.3462 20.2798C10.8617 22.5408 12.2706 25.11 14.5042 27.8848C13.0953 29.4606 11.8239 30.5225 10.5868 31.2076C9.69333 31.7215 8.83425 31.9955 7.97516 32.0983C7.04735 32.2011 6.15391 32.0641 5.36355 31.7558C3.67974 31.0706 2.47703 29.5291 2.23648 27.7477C2.13339 26.8913 2.20212 26.0349 2.54575 25.0757C2.64884 24.7332 2.82066 24.3906 2.99248 23.9795C3.23302 23.4314 3.50793 22.8491 3.78283 22.2667L3.8172 22.1982C6.18827 17.094 8.73116 11.887 11.3771 6.81704L11.4802 6.6115C11.7551 6.09765 12.03 5.54955 12.3049 5.0357C12.5799 4.4876 12.8891 3.97375 13.2671 3.52842C13.9888 2.70626 14.9509 2.26093 16.0162 2.26093C17.0815 2.26093 18.0436 2.70626 18.7653 3.52842C19.1433 3.97375 19.4525 4.4876 19.7274 5.0357C20.0023 5.54955 20.2773 6.09765 20.5522 6.6115L20.6552 6.81704C23.2669 11.9213 25.8097 17.1282 28.1808 22.2325V22.2667C28.4557 22.8148 28.6963 23.4314 28.9712 23.9795C29.143 24.3906 29.3148 24.7332 29.4179 25.0757C29.6928 25.9664 29.7959 26.8228 29.6584 27.7135Z" fill="#FF5A5F"/>
</svg>
