<svg width="134" height="27" viewBox="0 0 134 27" fill="none" xmlns="http://www.w3.org/2000/svg">
<path d="M15.6422 5.61466L7.88068 10.5688L15.6422 15.5229L7.88068 20.4771L0.119202 15.4816L7.88068 10.5275L0.119202 5.61466L7.88068 0.660522L15.6422 5.61466ZM7.8394 22.0459L15.6009 17.0917L23.3624 22.0459L15.6009 27L7.8394 22.0459ZM15.6422 15.4816L23.4036 10.5275L15.6422 5.61466L23.3624 0.660522L31.1238 5.61466L23.3624 10.5688L31.1238 15.5229L23.3624 20.4771L15.6422 15.4816Z" fill="#0061FF"/>
<path d="M37.1926 5.61468H43.4678C47.4724 5.61468 50.7752 7.92661 50.7752 13.211V14.3257C50.7752 19.6514 47.6788 22.0459 43.5917 22.0459H37.1926V5.61468ZM40.7018 8.58716V19.0321H43.3853C45.6559 19.0321 47.1834 17.5459 47.1834 14.2431V13.3762C47.1834 10.0734 45.5733 8.58716 43.2614 8.58716H40.7018ZM52.633 8.7523H55.4403L55.8944 11.8486C56.4311 9.74313 57.7935 8.62845 60.2706 8.62845H61.1376V12.1789H59.6926C56.844 12.1789 56.1422 13.1697 56.1422 15.9771V22.0872H52.6743V8.7523H52.633ZM61.8394 15.6881V15.3165C61.8394 10.8578 64.688 8.42203 68.5688 8.42203C72.5321 8.42203 75.2981 10.8578 75.2981 15.3165V15.6881C75.2981 20.0642 72.6147 22.4175 68.5688 22.4175C64.2752 22.3762 61.8394 20.0642 61.8394 15.6881ZM71.7477 15.6468V15.3165C71.7477 12.8395 70.5091 11.3532 68.5275 11.3532C66.5871 11.3532 65.3073 12.7156 65.3073 15.3165V15.6468C65.3073 18.0413 66.5458 19.4037 68.5275 19.4037C70.5091 19.3624 71.7477 18.0413 71.7477 15.6468ZM77.1147 8.7523H80.0046L80.3349 11.2707C81.0367 9.57799 82.5229 8.42203 84.711 8.42203C88.0963 8.42203 90.3257 10.8578 90.3257 15.3578V15.7294C90.3257 20.1055 87.8486 22.4175 84.711 22.4175C82.6055 22.4175 81.1605 21.4679 80.4587 19.9404V26.6698H77.0734L77.1147 8.7523ZM86.8165 15.6468V15.3578C86.8165 12.7156 85.4541 11.3945 83.6376 11.3945C81.6972 11.3945 80.4174 12.8807 80.4174 15.3578V15.6055C80.4174 17.9587 81.656 19.445 83.5963 19.445C85.578 19.4037 86.8165 18.1239 86.8165 15.6468ZM95.445 19.6101L95.156 22.0459H92.1835V4.29358H95.5688V11.1055C96.3119 9.37157 97.7982 8.42203 99.9037 8.42203C103.083 8.46331 105.436 10.6514 105.436 15.0688V15.4817C105.436 19.8991 103.206 22.4175 99.8211 22.4175C97.5918 22.3762 96.1468 21.3441 95.445 19.6101ZM101.885 15.4817V15.1514C101.885 12.7156 100.564 11.3532 98.7064 11.3532C96.8074 11.3532 95.4863 12.8807 95.4863 15.1927V15.4817C95.4863 17.9587 96.7661 19.4037 98.6652 19.4037C100.688 19.4037 101.885 18.1239 101.885 15.4817ZM106.922 15.6881V15.3165C106.922 10.8578 109.771 8.42203 113.651 8.42203C117.615 8.42203 120.381 10.8578 120.381 15.3165V15.6881C120.381 20.0642 117.656 22.4175 113.651 22.4175C109.358 22.3762 106.922 20.0642 106.922 15.6881ZM116.872 15.6468V15.3165C116.872 12.8395 115.633 11.3532 113.651 11.3532C111.711 11.3532 110.431 12.7156 110.431 15.3165V15.6468C110.431 18.0413 111.67 19.4037 113.651 19.4037C115.633 19.3624 116.872 18.0413 116.872 15.6468ZM124.922 15.1514L120.257 8.7523H124.262L126.945 12.7569L129.67 8.7523H133.633L128.885 15.1101L133.881 22.0459H129.959L126.904 17.6285L123.931 22.0459H119.844L124.922 15.1514Z" fill="black"/>
</svg>
