<svg width="89" height="28" viewBox="0 0 89 28" fill="none" xmlns="http://www.w3.org/2000/svg">
<path d="M66.4989 26.3581L73.8539 18.212L66.4989 10.0647H74.2592L77.9021 14.0221L81.4099 10.0647H88.8995L81.5794 18.1783L89 26.3581H81.2078L77.598 22.3682L74.0223 26.3581H66.4989Z" fill="#FF6600"/>
<path d="M66.4989 6.41232H58.1688V10.0647H66.4989V15.5692H58.1688V20.6216H66.4989V26.3581H52.0461V0.69165H66.4989V6.41232Z" fill="#FF6600"/>
<path d="M45.9494 0.69165V11.1956H45.8823C44.5325 9.66632 42.8461 9.13489 40.8893 9.13489C36.8811 9.13489 33.8617 11.8208 32.8019 15.3719C31.5932 11.4591 28.4761 9.06156 23.854 9.06156C20.1003 9.06156 17.1362 10.7224 15.5894 13.4287V10.0651H7.83055V6.41308H16.2976V0.69165H0.914185V26.3585H7.83055V15.5692H14.7243C14.5188 16.3618 14.4091 17.2104 14.4091 18.1058C14.4091 23.4598 18.5585 27.2165 23.854 27.2165C28.307 27.2165 31.2416 25.1558 32.7938 21.3987H26.8668C26.065 22.5274 25.4568 22.8626 23.854 22.8626C21.9954 22.8626 20.3929 21.2642 20.3929 19.3694H32.4617C32.9852 23.622 36.3458 27.2895 40.9576 27.2895C42.9469 27.2895 44.7683 26.3249 45.8823 24.6962H45.9494V26.3578H52.0463V0.69165H45.9494ZM20.5854 15.6459C20.97 14.0157 22.2527 12.9502 23.854 12.9502C25.6167 12.9502 26.8342 13.9828 27.1544 15.6459C27.2893 15.6459 20.5854 15.6459 20.5854 15.6459ZM42.2494 22.4502C40.002 22.4502 38.6055 20.3861 38.6055 18.2309C38.6055 15.9271 39.8202 13.7118 42.2494 13.7118C44.7683 13.7118 45.7718 15.9271 45.7718 18.2309C45.7715 20.4156 44.7081 22.4502 42.2494 22.4502Z" fill="#652C8F"/>
</svg>
