<svg width="99" height="32" viewBox="0 0 99 32" fill="none" xmlns="http://www.w3.org/2000/svg">
<path d="M42.1878 16.8301C42.1878 21.4313 38.5353 24.8219 34.0529 24.8219C29.5706 24.8219 25.9181 21.4313 25.9181 16.8301C25.9181 12.1965 29.5706 8.83838 34.0529 8.83838C38.5353 8.83838 42.1878 12.1965 42.1878 16.8301ZM38.6267 16.8301C38.6267 13.9548 36.5099 11.9875 34.0529 11.9875C31.596 11.9875 29.4791 13.9548 29.4791 16.8301C29.4791 19.6766 31.596 21.6727 34.0529 21.6727C36.5099 21.6727 38.6267 19.673 38.6267 16.8301Z" fill="#EA4335"/>
<path d="M59.7371 16.8301C59.7371 21.4313 56.0846 24.8219 51.6022 24.8219C47.1199 24.8219 43.4674 21.4313 43.4674 16.8301C43.4674 12.2001 47.1199 8.83838 51.6022 8.83838C56.0846 8.83838 59.7371 12.1965 59.7371 16.8301ZM56.176 16.8301C56.176 13.9548 54.0592 11.9875 51.6022 11.9875C49.1453 11.9875 47.0285 13.9548 47.0285 16.8301C47.0285 19.6766 49.1453 21.6727 51.6022 21.6727C54.0592 21.6727 56.176 19.673 56.176 16.8301Z" fill="#FBBC05"/>
<path d="M76.5552 9.3212V23.6689C76.5552 29.5708 73.0234 31.9813 68.8481 31.9813C64.9178 31.9813 62.5523 29.3906 61.6602 27.272L64.7606 26.0001C65.3127 27.3008 66.6654 28.8357 68.8445 28.8357C71.5171 28.8357 73.1733 27.2107 73.1733 24.1517V23.0023H73.049C72.252 23.9715 70.7164 24.8183 68.7787 24.8183C64.724 24.8183 61.0094 21.3376 61.0094 16.8589C61.0094 12.3478 64.724 8.83838 68.7787 8.83838C70.7128 8.83838 72.2483 9.68511 73.049 10.6255H73.1733V9.3248H76.5552V9.3212ZM73.4256 16.8589C73.4256 14.0449 71.5208 11.9875 69.0968 11.9875C66.6399 11.9875 64.5815 14.0449 64.5815 16.8589C64.5815 19.6442 66.6399 21.6727 69.0968 21.6727C71.5208 21.6727 73.4256 19.6442 73.4256 16.8589Z" fill="#4285F4"/>
<path d="M82.1309 0.911621V24.332H78.6576V0.911621H82.1309Z" fill="#34A853"/>
<path d="M95.6659 19.4606L98.43 21.2765C97.5379 22.5773 95.3881 24.8184 91.6735 24.8184C87.0668 24.8184 83.6263 21.309 83.6263 16.8267C83.6263 12.0741 87.096 8.83493 91.2749 8.83493C95.4831 8.83493 97.5415 12.1354 98.2142 13.9189L98.5835 14.8269L87.7431 19.2516C88.5731 20.855 89.8637 21.6729 91.6735 21.6729C93.4869 21.6729 94.7446 20.7937 95.6659 19.4606ZM87.1582 16.5853L94.4046 13.6199C94.0061 12.6218 92.8069 11.9264 91.3956 11.9264C89.5858 11.9264 87.0667 13.501 87.1582 16.5853Z" fill="#EA4335"/>
<path d="M12.7708 14.7512V11.3607H24.3644C24.4777 11.9516 24.5362 12.6506 24.5362 13.4072C24.5362 15.9511 23.8306 19.0966 21.5565 21.3377C19.3445 23.6077 16.5183 24.8183 12.7745 24.8183C5.83516 24.8183 0 19.2479 0 12.4092C0 5.57044 5.83516 0 12.7745 0C16.6134 0 19.3482 1.48449 21.4029 3.41937L18.9752 5.81185C17.5018 4.44986 15.5056 3.39054 12.7708 3.39054C7.70344 3.39054 3.74021 7.41524 3.74021 12.4092C3.74021 17.4031 7.70344 21.4278 12.7708 21.4278C16.0577 21.4278 17.9296 20.1271 19.1288 18.9452C20.1013 17.9868 20.7411 16.6176 20.9934 14.7476L12.7708 14.7512Z" fill="#4285F4"/>
</svg>
