<svg width="110" height="36" viewBox="0 0 110 36" fill="none" xmlns="http://www.w3.org/2000/svg">
<path d="M11.9124 6.55444V16.2076H3.83489V6.55444H0V29.5975H3.83489V20.2578H11.9124V29.5975H15.7473V6.55444H11.9124Z" fill="#33475B"/>
<path d="M28.0205 22.1488C28.0205 23.0723 27.6862 23.958 27.0912 24.611C26.4963 25.264 25.6893 25.6308 24.8479 25.6308C24.0065 25.6308 23.1995 25.264 22.6046 24.611C22.0096 23.958 21.6753 23.0723 21.6753 22.1488V12.2791H18.0377V22.1488C18.0377 24.1292 18.7545 26.0286 20.0304 27.4289C21.3064 28.8293 23.0369 29.616 24.8413 29.616C26.6457 29.616 28.3763 28.8293 29.6522 27.4289C30.9281 26.0286 31.6449 24.1292 31.6449 22.1488V12.2791H28.0205V22.1488Z" fill="#33475B"/>
<path d="M54.972 13.2958C54.972 11.2728 56.1914 10.6314 57.5273 10.6314C58.604 10.6314 60.0263 11.5305 60.9564 12.6214L63.3389 9.54051C62.1495 7.77527 59.737 6.55444 57.7622 6.55444C53.8164 6.55444 50.9623 9.09095 50.9623 13.2958C50.9623 21.0971 59.6505 18.6224 59.6505 22.9881C59.6505 24.3347 58.4593 25.5246 57.0952 25.5246C54.9438 25.5246 54.2467 24.3698 53.2584 23.149L50.6147 26.166C52.3058 28.4447 54.3914 29.6016 56.8904 29.6016C60.6388 29.6016 63.6545 27.0342 63.6545 23.0211C63.6545 14.3599 54.9663 17.051 54.9663 13.2958" fill="#33475B"/>
<path d="M108.72 25.9164C106.571 25.9164 105.96 24.8956 105.96 23.3325V16.4138H109.301V12.908H105.96V8.28253L102.272 10.0993V24.1924C102.272 27.7971 104.538 29.6139 107.646 29.6139C108.133 29.6237 108.62 29.5809 109.1 29.4861L110 25.8504C109.594 25.8814 109.128 25.9123 108.72 25.9123" fill="#33475B"/>
<path d="M41.8663 12.3946C40.0644 12.3946 38.8074 12.9679 37.5917 14.2774V6.69263H33.9485V20.7506C33.9485 26.0134 37.4151 29.6181 41.3101 29.6181C45.6317 29.6181 49.4327 25.9495 49.4327 21.0084C49.4327 16.1293 45.9342 12.3967 41.8663 12.3967V12.3946ZM41.8437 25.5948C41.0262 25.5948 40.227 25.3287 39.5472 24.8302C38.8674 24.3316 38.3376 23.6231 38.0248 22.7941C37.7119 21.9651 37.63 21.0529 37.7895 20.1728C37.949 19.2928 38.3427 18.4844 38.9208 17.8499C39.4989 17.2154 40.2355 16.7833 41.0373 16.6082C41.8392 16.4332 42.6703 16.523 43.4256 16.8664C44.1809 17.2098 44.8265 17.7913 45.2807 18.5374C45.735 19.2835 45.9774 20.1606 45.9774 21.0579C45.9774 22.2612 45.5419 23.4151 44.7667 24.2659C43.9915 25.1168 42.9401 25.5948 41.8437 25.5948Z" fill="#33475B"/>
<path d="M81.4252 20.7981C81.4252 15.8488 77.6316 12.1884 73.3026 12.1884C69.4075 12.1884 65.9409 15.7931 65.9409 21.0559V35.1221H69.5842V27.5271C70.7979 28.8345 72.0568 29.4098 73.8568 29.4098C77.9247 29.4098 81.4233 25.6793 81.4233 20.7981H81.4252ZM77.9754 20.7486C77.9754 21.6459 77.733 22.5231 77.2788 23.2691C76.8246 24.0152 76.179 24.5967 75.4237 24.9401C74.6684 25.2835 73.8372 25.3733 73.0354 25.1983C72.2335 25.0232 71.497 24.5911 70.9189 23.9566C70.3408 23.3221 69.9471 22.5138 69.7876 21.6337C69.6281 20.7536 69.71 19.8414 70.0228 19.0124C70.3357 18.1834 70.8655 17.4749 71.5453 16.9764C72.2251 16.4778 73.0243 16.2118 73.8418 16.2118C74.9381 16.2118 75.9895 16.6898 76.7647 17.5406C77.5399 18.3914 77.9754 19.5454 77.9754 20.7486Z" fill="#33475B"/>
<path d="M93.1949 11.9948V7.97766C93.6786 7.72961 94.0882 7.33586 94.3759 6.84227C94.6637 6.34867 94.8177 5.77553 94.8202 5.18957V5.09677C94.8202 4.27637 94.5233 3.48958 93.9947 2.90947C93.4662 2.32937 92.7493 2.00347 92.0018 2.00347H91.9173C91.1698 2.00347 90.4529 2.32937 89.9244 2.90947C89.3958 3.48958 89.0989 4.27637 89.0989 5.09677V5.18957C89.1014 5.77553 89.2554 6.34867 89.5432 6.84227C89.8309 7.33586 90.2405 7.72961 90.7242 7.97766V11.9948C89.3339 12.2283 88.0246 12.8607 86.9287 13.8281L76.8915 5.24731C76.9625 4.96435 77.0004 4.6726 77.0042 4.37912C77.0053 3.68974 76.8201 3.01549 76.4721 2.44164C76.124 1.86779 75.6287 1.42013 75.0488 1.15528C74.4689 0.890432 73.8304 0.820292 73.2142 0.953733C72.598 1.08717 72.0316 1.4182 71.5868 1.90494C71.142 2.39169 70.8387 3.01228 70.7153 3.68822C70.5919 4.36416 70.6539 5.06509 70.8935 5.70234C71.1331 6.3396 71.5395 6.88455 72.0614 7.26827C72.5832 7.65199 73.197 7.85724 73.8251 7.85805C74.3743 7.85536 74.9133 7.69467 75.3883 7.392L85.2734 15.8326C84.3852 17.3049 83.9217 19.0369 83.9435 20.8025C83.9653 22.5682 84.4713 24.2857 85.3955 25.7311L82.3892 29.0307C82.1461 28.9455 81.8928 28.9003 81.6377 28.8966C81.122 28.897 80.618 29.0652 80.1895 29.3799C79.7609 29.6945 79.4269 30.1416 79.2297 30.6645C79.0326 31.1875 78.9811 31.7628 79.0818 32.3179C79.1825 32.8729 79.4308 33.3828 79.7954 33.7829C80.16 34.1831 80.6246 34.4557 81.1303 34.5662C81.636 34.6767 82.1602 34.6202 82.6367 34.4038C83.1132 34.1874 83.5205 33.8209 83.8072 33.3505C84.0939 32.8801 84.2471 32.327 84.2475 31.761C84.2443 31.4809 84.2031 31.2029 84.1254 30.9361L87.0997 27.6717C88.0696 28.4908 89.1974 29.0555 90.3968 29.3224C91.5962 29.5893 92.8353 29.5514 94.0193 29.2115C95.2032 28.8717 96.3007 28.239 97.2274 27.3618C98.1542 26.4846 98.8858 25.3863 99.3661 24.1509C99.8464 22.9155 100.063 21.5759 99.9985 20.2346C99.9343 18.8932 99.5912 17.5859 98.9956 16.4125C98.3999 15.2392 97.5675 14.2311 96.5621 13.4653C95.5566 12.6996 94.4049 12.1966 93.1949 11.9948ZM91.9624 25.2053C91.1488 25.2045 90.3536 24.939 89.6775 24.4423C89.0013 23.9457 88.4745 23.2402 88.1636 22.415C87.8527 21.5898 87.7716 20.682 87.9307 19.8062C88.0897 18.9305 88.4817 18.1262 89.0571 17.4949C89.6326 16.8636 90.3656 16.4337 91.1636 16.2596C91.9616 16.0854 92.7887 16.1748 93.5404 16.5164C94.2921 16.8581 94.9346 17.4366 95.3868 18.1789C95.8391 18.9212 96.0806 19.794 96.081 20.687C96.081 21.8848 95.6475 23.0335 94.8758 23.8805C94.1041 24.7274 93.0574 25.2032 91.9661 25.2032" fill="#FF7A59"/>
</svg>
